<svg xmlns="http://www.w3.org/2000/svg" viewBox="0 0 168.51 142.66"><defs><style>.cls-1{opacity:.1}.cls-2{fill:#463e3b}.cls-3{fill:#8bd2ff;opacity:.5}.cls-15,.cls-6{fill:#fff}.cls-9{fill:#ffb82a}.cls-15{opacity:.15}</style></defs><g id="Layer_2" data-name="Layer 2"><g id="Layer_1-2" data-name="Layer 1"><g class="cls-1"><path class="cls-2" d="M151.17 54.75h-19v-10h19zM132.91 54h17.51v-8.5h-17.51z"/><path class="cls-2" d="M164.87 64.55h-19v-10h19zm-18.26-.75h17.51v-8.5h-17.51z"/></g><path class="cls-3" d="M155.22 34.76l-2.67-1.25-2.94.16.36-2.92-1.06-2.75 2.89-.56 2.29-1.85 1.42 2.57 2.48 1.6-2.02 2.15-.75 2.85zM160.92 84.13l-2.67-1.25-2.94.16.36-2.92-1.06-2.75 2.89-.56 2.29-1.86 1.42 2.58 2.48 1.6-2.01 2.15-.76 2.85z"/><path d="M168.51 61.08a41.62 41.62 0 0 0-31.68-40.61 59.47 59.47 0 0 0-95.09 7.1 44.69 44.69 0 0 0-.08 84.52A35.05 35.05 0 0 0 107 124.84a34.87 34.87 0 0 0 17.71 4.82c19.57 0 35.43-16.09 35.43-35.94a36.62 36.62 0 0 0-.6-6.58 41.92 41.92 0 0 0 8.97-26.06z" fill="#ddebff" opacity=".5"/><g class="cls-1"><path class="cls-2" d="M50.37 10.59h-19V.84h19zm-18.26-.75h17.51V1.59H32.11z"/><path class="cls-2" d="M64.06 20.13h-19v-9.76h19zm-18.26-.75h17.51v-8.26H45.8z"/></g><path class="cls-3" d="M13.9 15.3l-2.66-1.25-2.94.16.36-2.92L7.6 8.54l2.89-.56 2.28-1.85L14.2 8.7l2.47 1.6-2.01 2.15-.76 2.85zM6.31 111.03l-2.67-1.25-2.94.16.36-2.92L0 104.27l2.89-.55 2.29-1.86 1.42 2.58 2.47 1.59-2.01 2.16-.75 2.84z"/><path fill="#e6f4ff" d="M23.94 19.76h123.92v101.4H23.94z"/><path class="cls-6" d="M23.94 19.6H147.7v3.44H23.94z"/><path fill="#ceeaff" d="M23.94 103.33h124.14v17.85H23.94z"/><path class="cls-6" d="M29.82 45.65h110.17v67H29.82z"/><path class="cls-9" d="M29.82 45.56h31.85l-4.22-6.34H34.04l-4.22 6.34z"/><path opacity=".15" fill="#6262a0" d="M61.66 45.56h31.86l-4.23-6.33H65.88l-4.22 6.33z"/><text transform="translate(48.5 94.22)" font-size="45.77" fill="#8686ba" font-family="FiraSans-Bold,Fira Sans" font-weight="700">&lt;/&gt;</text><path d="M145.62 122.89H26.91a4 4 0 0 1-3.91-3.95V21.62a4 4 0 0 1 3.95-3.95h118.67a4 4 0 0 1 3.95 3.95v97.32a4 4 0 0 1-3.95 3.95zM26.91 19.67A2 2 0 0 0 25 21.62v97.32a2 2 0 0 0 1.95 1.95h118.67a2 2 0 0 0 1.95-1.95V21.62a2 2 0 0 0-1.95-1.95z" fill="#60609a"/><circle class="cls-6" cx="134.15" cy="33.05" r="4.86"/><circle class="cls-6" cx="118.37" cy="33.05" r="4.86"/><circle class="cls-6" cx="102.58" cy="33.05" r="4.86"/><circle cx="52.18" cy="31.69" r="2.89" fill="#25c83a"/><circle class="cls-9" cx="42.78" cy="31.69" r="2.89"/><circle cx="33.38" cy="31.69" r="2.89" fill="#ff5750"/><path class="cls-15" d="M52.52 31.34a2.89 2.89 0 0 1 2.43 1.34 2.86 2.86 0 0 0 .13-.8 2.89 2.89 0 1 0-5.33 1.56 2.88 2.88 0 0 1 2.77-2.1zM43.21 31.34a2.89 2.89 0 0 1 2.43 1.34 2.86 2.86 0 0 0 .13-.8 2.89 2.89 0 1 0-5.33 1.56 2.88 2.88 0 0 1 2.77-2.1zM33.78 31.34a2.89 2.89 0 0 1 2.43 1.34 2.86 2.86 0 0 0 .13-.8A2.89 2.89 0 1 0 31 33.43a2.88 2.88 0 0 1 2.78-2.09z"/></g></g></svg>