<svg xmlns="http://www.w3.org/2000/svg" viewBox="0 0 169.97 139.85"><defs><style>.cls-4{opacity:.5}.cls-2{opacity:.1}.cls-3{fill:#463e3b}.cls-4{fill:#8bd2ff}.cls-14,.cls-5{fill:#fff}.cls-8{fill:#ceeaff}.cls-9{fill:#ffb82a}.cls-14{opacity:.15}.cls-15{fill:#8686ba}</style></defs><g id="Layer_2" data-name="Layer 2"><g id="Layer_1-2" data-name="Layer 1"><path d="M163.59 60.65a40.4 40.4 0 0 0-30.75-39.43 57.73 57.73 0 0 0-92.31 6.9 43.39 43.39 0 0 0-.08 82.06 34 34 0 0 0 63.39 12.37 33.85 33.85 0 0 0 17.2 4.68c19 0 34.39-15.62 34.39-34.89a35.55 35.55 0 0 0-.58-6.38 40.7 40.7 0 0 0 8.74-25.31z" opacity=".5" fill="#ddebff"/><g class="cls-2"><path class="cls-3" d="M48.91 11.65H30.43v-9.5h18.48zm-17.73-.75h17v-8h-17z"/><path class="cls-3" d="M62.2 20.9H43.73v-9.49H62.2zm-17.73-.75h17v-8h-17z"/></g><g class="cls-2"><path class="cls-3" d="M66.6 129.16H48.12v-8.23H66.6zm-17.73-.75h17v-6.73h-17z"/><path class="cls-3" d="M79.89 137.08H61.42v-8.23h18.47zm-17.73-.75h17v-6.73h-17z"/></g><g class="cls-2"><path class="cls-3" d="M163.5 61.44H145v-8.71h18.5zm-17.73-.75h17v-7.21h-17z"/><path class="cls-3" d="M150.21 69.86h-18.48v-8.71h18.48zm-17.73-.75h17V61.9h-17z"/></g><path class="cls-4" d="M137.04 8.91l-2.59-1.21-2.85.15.35-2.84-1.03-2.66 2.81-.55 2.22-1.8 1.38 2.5 2.4 1.55-1.95 2.09-.74 2.77zM167.28 91.52l-2.59-1.21-2.85.15.35-2.83-1.03-2.67 2.81-.54 2.22-1.81 1.38 2.5 2.4 1.56-1.95 2.09-.74 2.76zM13.5 16.2l-2.59-1.21-2.86.16.35-2.84-1.02-2.67 2.8-.54 2.22-1.8 1.39 2.5 2.39 1.55-1.95 2.09-.73 2.76zM104.96 138.65l-2.59-1.21-2.85.15.35-2.83-1.03-2.67 2.81-.54 2.21-1.81 1.39 2.5 2.4 1.56-1.95 2.09-.74 2.76zM6.12 109.14l-2.59-1.21-2.85.16.35-2.84L0 102.58l2.81-.54 2.22-1.8 1.38 2.5 2.4 1.55-1.95 2.09-.74 2.76z"/><path class="cls-5" d="M137.55 38.54l.06 4.12a.63.63 0 0 0 1.25 0l-.06-4.12a.63.63 0 0 0-1.25 0zM134.85 31.49h3.38l-.62-.62v3.07a.63.63 0 0 0 1.25 0v-3.08a.63.63 0 0 0-.62-.62h-3.38a.63.63 0 0 0 0 1.25z"/><path fill="#e6f4ff" d="M24.07 20.53h119.99v98.45H24.07z"/><path class="cls-5" d="M23.78 20.53v1a.83.83 0 0 0 .83.83h118.63a.83.83 0 0 0 .83-.83 2.5 2.5 0 0 0-2.51-2.5l-117 .65a.83.83 0 0 0-.78.85z"/><path class="cls-8" d="M23.73 101.66h119.36v17.33H23.73z"/><path class="cls-5" d="M28.95 45.67H135.9v65.05H28.95z"/><path class="cls-9" d="M28.95 45.58h30.92l-4.1-6.15H33.04l-4.09 6.15z"/><path opacity=".15" fill="#6262a0" d="M59.86 45.59h30.93l-4.1-6.15H63.96l-4.1 6.15z"/><path d="M141.29 120.69H26.21a4 4 0 0 1-3.95-3.95V22.43a4 4 0 0 1 3.95-3.95h115.08a4 4 0 0 1 3.95 3.95v94.31a4 4 0 0 1-3.95 3.95zM26.21 20.48a2 2 0 0 0-1.95 1.95v94.31a2 2 0 0 0 1.95 1.95h115.08a2 2 0 0 0 1.95-1.95V22.43a2 2 0 0 0-1.95-1.95z" fill="#60609a"/><circle class="cls-5" cx="130.24" cy="33.44" r="4.72"/><circle class="cls-5" cx="114.91" cy="33.44" r="4.72"/><circle class="cls-5" cx="99.59" cy="33.44" r="4.72"/><circle cx="50.66" cy="32.11" r="2.81" fill="#25c83a"/><circle class="cls-9" cx="41.53" cy="32.11" r="2.81"/><circle cx="32.41" cy="32.11" r="2.81" fill="#ff5750"/><path class="cls-14" d="M51 31.78a2.8 2.8 0 0 1 2.36 1.3 2.78 2.78 0 0 0 .12-.77 2.81 2.81 0 1 0-5.17 1.51A2.8 2.8 0 0 1 51 31.78zM41.95 31.78a2.8 2.8 0 0 1 2.36 1.3 2.78 2.78 0 0 0 .12-.77 2.81 2.81 0 1 0-5.17 1.51 2.8 2.8 0 0 1 2.69-2.04zM32.8 31.78a2.8 2.8 0 0 1 2.36 1.3 2.78 2.78 0 0 0 .12-.77 2.81 2.81 0 1 0-5.17 1.51 2.8 2.8 0 0 1 2.69-2.04z"/><path class="cls-8" d="M82.5 56.6a28.65 28.65 0 0 0-24.81 43h49.63a28.65 28.65 0 0 0-24.81-43z"/><path class="cls-15" d="M82.5 62.87a2.69 2.69 0 1 1-2.69 2.69 2.64 2.64 0 0 1 2.69-2.69zM62.79 88a2.69 2.69 0 1 1 2.69-2.69A2.64 2.64 0 0 1 62.79 88z"/><circle class="cls-15" cx="68.17" cy="70.94" r="1.79"/><path class="cls-15" d="M86.8 89.84A6.27 6.27 0 1 1 77.93 81c2.42-2.42 14.42-5.55 14.42-5.55s-3.04 11.97-5.55 14.39z"/><circle class="cls-15" cx="96.83" cy="70.94" r="1.79"/><path class="cls-15" d="M102.21 88a2.69 2.69 0 1 1 2.69-2.69 2.64 2.64 0 0 1-2.69 2.69z"/></g></g></svg>