<svg xmlns="http://www.w3.org/2000/svg" viewBox="0 0 164.95 135.72"><defs><style>.cls-4{opacity:.5}.cls-2{opacity:.1}.cls-3{fill:#463e3b}.cls-4{fill:#8bd2ff}.cls-14,.cls-5{fill:#fff}.cls-8{fill:#ceeaff}.cls-9{fill:#ffb82a}.cls-14{opacity:.15}.cls-15{fill:#8686ba}</style></defs><g id="Layer_2" data-name="Layer 2"><g id="Layer_1-2" data-name="Layer 1"><path d="M158.76 58.86a39.21 39.21 0 0 0-29.84-38.26 56 56 0 0 0-89.58 6.69 42.1 42.1 0 0 0-.08 79.63 33 33 0 0 0 61.51 12 32.85 32.85 0 0 0 16.69 4.54 33.62 33.62 0 0 0 33.38-33.86 34.5 34.5 0 0 0-.57-6.2 39.5 39.5 0 0 0 8.49-24.54z" opacity=".5" fill="#ddebff"/><g class="cls-2"><path class="cls-3" d="M47.47 11.31h-18V2.08h18zm-17.2-.75h16.45V2.83H30.27z"/><path class="cls-3" d="M60.38 20.3h-18v-9.24h18zm-17.2-.75h16.45v-7.74H43.17z"/></g><g class="cls-2"><path class="cls-3" d="M64.64 125.35h-18v-8h18zm-17.2-.75h16.45v-6.51H47.44z"/><path class="cls-3" d="M77.54 133h-18v-8h18zm-17.2-.75h16.45v-6.51H60.34z"/></g><g class="cls-2"><path class="cls-3" d="M158.68 59.63h-18v-8.47h18zm-17.2-.75h16.45v-7h-16.45z"/><path class="cls-3" d="M145.78 67.81h-18v-8.47h18zm-17.2-.75H145v-7h-16.42z"/></g><path class="cls-4" d="M132.99 8.64l-2.51-1.17-2.77.15.34-2.75-1-2.59 2.73-.53L131.93 0l1.34 2.43 2.33 1.51-1.89 2.02-.72 2.68zM162.34 88.81l-2.51-1.17-2.77.15.34-2.75-1-2.59 2.73-.53 2.15-1.75 1.34 2.43 2.33 1.51-1.89 2.02-.72 2.68zM13.1 15.73l-2.51-1.18-2.77.15.34-2.75-1-2.59 2.72-.53 2.16-1.75 1.34 2.43 2.33 1.51-1.9 2.03-.71 2.68zM101.86 134.55l-2.51-1.17-2.77.15.34-2.76-1-2.58 2.72-.53 2.16-1.75 1.34 2.43 2.33 1.5-1.89 2.03-.72 2.68zM5.94 105.92l-2.51-1.17-2.77.14.34-2.75-1-2.59 2.72-.52 2.16-1.75 1.34 2.42 2.33 1.51-1.89 2.03-.72 2.68z"/><path class="cls-5" d="M133.47 37.4l.06 4a.63.63 0 0 0 1.25 0l-.06-4a.63.63 0 0 0-1.25 0zM130.87 30.57h3.28l-.62-.62v3a.63.63 0 0 0 1.25 0v-3a.63.63 0 0 0-.62-.62h-3.28a.63.63 0 0 0 0 1.25z"/><path fill="#e6f4ff" d="M23.34 19.93H140.3v95.54H23.34z"/><path class="cls-5" d="M23 20.75v1.6h117.3v-1.7a1.55 1.55 0 0 0-1.55-1.55H24.68A1.64 1.64 0 0 0 23 20.75z"/><path class="cls-8" d="M23.01 98.66H140.3v16.82H23.01z"/><path class="cls-5" d="M28.09 44.32h103.79v63.13H28.09z"/><path class="cls-9" d="M28.09 44.23H58.1l-3.97-5.97H32.07l-3.98 5.97z"/><path opacity=".15" fill="#6262a0" d="M58.09 44.24h30.02l-3.98-5.97H62.07l-3.98 5.97z"/><path d="M137 117.15H25.52a4 4 0 0 1-3.95-3.95V21.86a4 4 0 0 1 4-3.95H137a4 4 0 0 1 4 3.95v91.34a4 4 0 0 1-4 3.95zM25.52 19.91a2 2 0 0 0-2 1.95v91.34a2 2 0 0 0 1.95 1.95H137a2 2 0 0 0 2-1.95V21.86a2 2 0 0 0-2-1.95z" fill="#60609a"/><circle class="cls-5" cx="126.39" cy="32.45" r="4.58"/><circle class="cls-5" cx="111.52" cy="32.45" r="4.58"/><circle class="cls-5" cx="96.64" cy="32.45" r="4.58"/><circle cx="49.16" cy="31.16" r="2.73" fill="#25c83a"/><circle class="cls-9" cx="40.3" cy="31.16" r="2.73"/><circle cx="31.45" cy="31.16" r="2.73" fill="#ff5750"/><path class="cls-14" d="M49.48 30.84a2.72 2.72 0 0 1 2.29 1.26 2.7 2.7 0 0 0 .12-.75 2.73 2.73 0 1 0-5 1.47 2.72 2.72 0 0 1 2.59-1.98zM40.71 30.84A2.72 2.72 0 0 1 43 32.09a2.7 2.7 0 0 0 .12-.75 2.73 2.73 0 1 0-5 1.47 2.72 2.72 0 0 1 2.59-1.97zM31.83 30.84a2.72 2.72 0 0 1 2.29 1.26 2.7 2.7 0 0 0 .12-.75 2.73 2.73 0 1 0-5 1.47 2.72 2.72 0 0 1 2.59-1.98z"/><path class="cls-15" d="M76 69.76c-9.78 9.78-9.75 14.23-7 17s7.22 2.81 17-7 21.2-25.69 18.43-28.45S85.83 60 76 69.76z"/><path class="cls-8" d="M50.29 98.36c3.2 3.2 15.73 4.1 21.8-2a9.9 9.9 0 0 0 1.64-2.19c-9.5-.28-14.52-3.45-17-5.88-1.09 3.22-2.14 7.22-6.44 10.07z"/><path class="cls-15" d="M72.85 83c-3.49-3.49-9.92-2.73-13.41.76a11.33 11.33 0 0 0-2.71 4.58c2.48 2.43 7.34 9.94 17 5.88 1.99-3.59 1.97-8.39-.88-11.22z"/><path class="cls-8" d="M56.73 88.32s5.76-1.09 8.5 2.95 8.5 2.93 8.5 2.93l-7.45 4.12-7.46-5.43z"/></g></g></svg>