<svg xmlns="http://www.w3.org/2000/svg" viewBox="0 0 630.89 392.2"><defs><style>.cls-11,.cls-2{fill:#3d3634}.cls-6{fill:#e1e6e9}.cls-7{fill:#cbd2dc}.cls-8{opacity:.2}.cls-9{fill:#fff}.cls-11{opacity:.5}.cls-13{fill:#f4e0cc}.cls-14{fill:#fff8ef}</style></defs><g id="Layer_2" data-name="Layer 2"><g id="Layer_1-2" data-name="Layer 1"><path fill="#00dba4" d="M196 317.2l-31-39 158-56 157 63-18.5 36.5L213 352.2l-17-35z"/><path class="cls-2" d="M213.12 353.82L195.72 318l-32.21-40.52L324 220.6l159 63.82-19.6 38.67-.79.1zm-44.64-74.91l29.79 37.48 16.6 34.18 246.64-30.27 17.41-34.3L324 223.81z"/><path d="M255 83.2c0-2-9-28 15-48 0 0 13-12 10-34 0 0-1 26 57 26 0 0 45.83-7 45.83 57.5" fill="#977e71"/><path d="M365 83.7h-94.68c.7-5.39 4.15-25.47 17.26-28.79 10.53 5.09 29.9 9.42 62.42 1.29 0 0 19.87 7.88 15 27.5z" fill="#ebd9c7"/><path d="M353.69 58.33c-.48.28-1 .55-1.46.81a76.57 76.57 0 0 1-61.47 4.37 6.79 6.79 0 0 0-3.8-.64c-2.08.49-3.1 2.77-4 4.73a45.15 45.15 0 0 1-11.51 15.68c1-6.68 4.82-24.47 17.09-27.58 10.57 5.07 29.94 9.42 62.46 1.3a23.54 23.54 0 0 1 2.69 1.33z" fill="#e2c4b2"/><path class="cls-6" d="M86.5 336.7h479.15v54H86.5z"/><path class="cls-7" d="M87.35 337.7H566.5v12H87.35z"/><path class="cls-2" d="M567.15 392.2H85v-57h482.15zM88 389.2h476.15v-51H88z"/><g class="cls-8"><path class="cls-6" d="M507.5 238.7h60.89v15.98H507.5z"/><path class="cls-7" d="M507.61 239h60.89v3.55h-60.89z"/><path class="cls-2" d="M569.89 256.18H506v-19h63.89zm-60.89-3h57.89v-13H509z"/><path class="cls-6" d="M568.5 238.7h60.89v15.98H568.5z"/><path class="cls-7" d="M568.61 239h60.89v3.55h-60.89z"/><path class="cls-2" d="M630.89 256.18H567v-19h63.89zm-60.89-3h57.89v-13H570z"/><path class="cls-6" d="M538.73 254.68h60.89v15.98h-60.89z"/><path class="cls-7" d="M538.83 254.97h60.89v3.55h-60.89z"/><path class="cls-2" d="M601.12 272.15h-63.89v-19h63.89zm-60.89-3h57.89v-13h-57.89z"/></g><g class="cls-8"><path class="cls-6" d="M26.5 35.7h60.89v15.98H26.5z"/><path class="cls-7" d="M26.61 36H87.5v3.55H26.61z"/><path class="cls-2" d="M88.89 53.18H25v-19h63.89zm-60.89-3h57.89v-13H28z"/><path class="cls-6" d="M87.5 35.7h60.89v15.98H87.5z"/><path class="cls-7" d="M87.61 36h60.89v3.55H87.61z"/><path class="cls-2" d="M149.89 53.18H86v-19h63.89zm-60.89-3h57.89v-13H89z"/><path class="cls-6" d="M57.73 51.68h60.89v15.98H57.73z"/><path class="cls-7" d="M57.83 51.97h60.89v3.55H57.83z"/><path class="cls-2" d="M120.12 69.15H56.23v-19h63.89zm-60.89-3h57.89v-13H59.23z"/></g><g class="cls-8"><path class="cls-6" d="M1.5 253.68h60.89v15.98H1.5z"/><path class="cls-7" d="M1.61 265.81H62.5v3.55H1.61z"/><path class="cls-2" d="M63.89 271.15H0v-19h63.89zm-60.89-3h57.89v-13H3z"/><path class="cls-6" d="M62.5 253.68h60.89v15.98H62.5z"/><path class="cls-7" d="M62.61 265.81h60.89v3.55H62.61z"/><path class="cls-2" d="M124.89 271.15H61v-19h63.89zm-60.89-3h57.89v-13H64z"/><path class="cls-6" d="M32.73 237.7h60.89v15.98H32.73z"/><path class="cls-7" d="M32.83 249.83h60.89v3.55H32.83z"/><path class="cls-2" d="M95.12 255.18H31.23v-19h63.89zm-60.89-3h57.89v-13H34.23z"/></g><g class="cls-8"><path class="cls-6" d="M422.5 44.68h60.89v15.98H422.5z"/><path class="cls-7" d="M422.61 56.81h60.89v3.55h-60.89z"/><path class="cls-2" d="M484.89 62.15H421v-19h63.89zm-60.89-3h57.89v-13H424z"/><path class="cls-6" d="M483.5 44.68h60.89v15.98H483.5z"/><path class="cls-7" d="M483.61 56.81h60.89v3.55h-60.89z"/><path class="cls-2" d="M545.89 62.15H482v-19h63.89zm-60.89-3h57.89v-13H485z"/><path class="cls-6" d="M453.73 28.7h60.89v15.98h-60.89z"/><path class="cls-7" d="M453.83 40.83h60.89v3.55h-60.89z"/><path class="cls-2" d="M516.12 46.18h-63.89v-19h63.89zm-60.89-3h57.89v-13h-57.89z"/></g><circle class="cls-9" cx="479.5" cy="255.7" r="4.5"/><path class="cls-2" d="M479.5 261.7a6 6 0 1 1 6-6 6 6 0 0 1-6 6zm0-9a3 3 0 1 0 3 3 3 3 0 0 0-3-3z"/><path class="cls-6" d="M261.5 310.7h134v11h-134z"/><path class="cls-9" d="M260.5 310.7h134v4h-134z"/><path class="cls-2" d="M396.5 322.7h-137v-14h137zm-134-3h131v-8h-131z"/><rect class="cls-6" x="160.5" y="84.7" width="332" height="213" rx="12" ry="12"/><path class="cls-9" d="M480.5 84.7h-308a12 12 0 0 0-12 12v12a12 12 0 0 1 12-12h308a12 12 0 0 1 12 12v-12a12 12 0 0 0-12-12z"/><path class="cls-2" d="M480.5 299.2h-308a13.52 13.52 0 0 1-13.5-13.5v-189a13.52 13.52 0 0 1 13.5-13.5h308A13.52 13.52 0 0 1 494 96.7v189a13.52 13.52 0 0 1-13.5 13.5zm-308-213A10.51 10.51 0 0 0 162 96.7v189a10.51 10.51 0 0 0 10.5 10.5h308a10.51 10.51 0 0 0 10.5-10.5v-189a10.51 10.51 0 0 0-10.5-10.5z"/><circle class="cls-2" cx="326.5" cy="169.7" r="23.5"/><path class="cls-2" d="M296 208.7h61v3h-61z"/><path class="cls-6" d="M345 209.7h-38l-11 110h60l-11-110z"/><path class="cls-9" d="M308 210.7h38v9h-38z"/><path fill="#ccd0da" d="M357.5 319.7h-60l1-7h58l1 7z"/><path class="cls-2" d="M358.66 322.2h-63.32l11.3-113h40.71zm-60-3h56.68l-10.7-107h-35.28z"/><circle class="cls-9" cx="190.5" cy="280.7" r="2.5"/><path class="cls-2" d="M190.5 284.2a3.5 3.5 0 1 1 3.5-3.5 3.5 3.5 0 0 1-3.5 3.5zm0-5a1.5 1.5 0 1 0 1.5 1.5 1.5 1.5 0 0 0-1.5-1.5z"/><circle class="cls-9" cx="470" cy="281.2" r="5.5"/><path class="cls-2" d="M470 287.7a6.5 6.5 0 1 1 6.5-6.5 6.51 6.51 0 0 1-6.5 6.5zm0-11a4.5 4.5 0 1 0 4.5 4.5 4.5 4.5 0 0 0-4.5-4.5zM326.75 255.7a9.5 9.5 0 1 1 9.5-9.5 9.51 9.51 0 0 1-9.5 9.5zm0-17a7.5 7.5 0 1 0 7.5 7.5 7.51 7.51 0 0 0-7.5-7.5z"/><circle class="cls-9" cx="326.75" cy="246.2" r="3.9" transform="rotate(-45 326.751 246.205)"/><path class="cls-2" d="M326.75 251.09a4.89 4.89 0 1 1 3.46-1.43 4.88 4.88 0 0 1-3.46 1.43zm0-7.79a2.9 2.9 0 1 0 2 4.94 2.9 2.9 0 0 0-2-4.94z"/><path class="cls-9" d="M199 274.7h4.5v10.17H199z"/><path class="cls-2" d="M204.5 285.87H198V273.7h6.5zm-4.5-2h2.5v-8.17H200z"/><path class="cls-11" d="M199.5 274.7h1v11h-1z"/><path class="cls-9" d="M207 274.7h4.5v10.17H207z"/><path class="cls-2" d="M212.5 285.87H206V273.7h6.5zm-4.5-2h2.5v-8.17H208z"/><path class="cls-11" d="M207.5 274.7h1v11h-1z"/><path class="cls-9" d="M215 274.7h4.5v10.17H215z"/><path class="cls-2" d="M220.5 285.87H214V273.7h6.5zm-4.5-2h2.5v-8.17H216z"/><path class="cls-11" d="M215.5 274.7h1v11h-1z"/><path class="cls-6" d="M43.5 320.7h565v18h-565z"/><path class="cls-9" d="M44.5 321.7h565v4h-565z"/><path class="cls-2" d="M270.66 85.16l-3-.25a63.53 63.53 0 0 1 3.25-14.42c3.57-10 9.21-15.93 16.3-17.26l.55 2.95c-14.69 2.76-17.08 28.72-17.1 28.98z"/><path class="cls-2" d="M365.93 84.82l-2.86-.89c2.51-8 1-15.06-4.4-20.85a29.5 29.5 0 0 0-8.8-6.3c-55.94 13.83-73.36-8.72-74.07-9.69l2.41-1.78-1.21.89 1.2-.9c.17.22 17.26 22 71.43 8.44l.47-.12.45.18c.23.1 22.22 9.11 15.38 31.02zM272.42 62.73c-7.82 0-14.65-7-17.68-11.71l2.52-1.63c.1.15 9.72 14.75 20.19 9l1.44 2.61a13.28 13.28 0 0 1-6.47 1.73zM268.92 69.4c-7.6 0-14.25-6.84-17.18-11.38l2.52-1.63c.09.14 9.41 14.27 19.52 8.71l1.44 2.63a12.93 12.93 0 0 1-6.3 1.67zM266.44 77.9c-7 0-13-6.24-15.7-10.39l2.52-1.63c.08.13 8.46 12.83 17.52 7.86l1.44 2.63a11.86 11.86 0 0 1-5.78 1.53z"/><path d="M377.32 52.65c-9.89-5.9-20.44-10.31-31.79-10-9.32.24-18.24 3.68-27.49 4.86-16.66 2.13-34.06-3.79-46.32-15.21a40.44 40.44 0 0 0 8.69-27.35 22.38 22.38 0 0 0 5.12 7C292 18.87 306.2 26.2 337 26.2c0 0 17.25-2.63 30.58 10.23a45 45 0 0 1 9.74 16.22z" fill="#8b7163"/><path class="cls-2" d="M383.33 83.7h-3c0-22.25-5.47-38.25-16.25-47.53-12.38-10.66-27.7-8.51-27.85-8.48h-.22c-17.54 0-40.86-2.52-52.41-14.52a25.18 25.18 0 0 1-2.74-3.37c-1.07 16.27-10.38 25.07-10.86 25.5-13.76 11.49-18.73 26.7-14.8 45.11a10 10 0 0 1 .3 1.79h-3c0-.15-.13-.71-.24-1.2-4.18-19.64 1.13-35.78 15.77-48a32 32 0 0 0 5.8-8.39 41.1 41.1 0 0 0 3.92-22 11.54 11.54 0 0 1-.25-2.46l3-.15q.16 1.16.26 2.29a18.59 18.59 0 0 0 5.11 8.92c6 6.15 19.53 13.47 50 13.49 1.64-.22 17.11-2 30.11 9.16 11.52 9.88 17.35 26.65 17.35 49.84z"/><path class="cls-13" d="M215 321a19.75 19.75 0 0 1 39.5 0"/><path class="cls-14" d="M234.75 308a19.74 19.74 0 0 1 19.09 14.75h.66a19.75 19.75 0 0 0-39.5 0h.66A19.74 19.74 0 0 1 234.75 308zM425.75 307a19.74 19.74 0 0 1 19.09 14.75h.66a19.75 19.75 0 0 0-39.5 0h.66A19.74 19.74 0 0 1 425.75 307z"/><path class="cls-13" d="M404 322a19.75 19.75 0 0 1 39.5 0"/><path class="cls-2" d="M256 321h-3a18.25 18.25 0 0 0-36.5 0h-3a21.25 21.25 0 0 1 42.5 0z"/><path class="cls-14" d="M424.75 306a19.74 19.74 0 0 1 19.09 14.75h.66a19.75 19.75 0 0 0-39.5 0h.66A19.74 19.74 0 0 1 424.75 306z"/><path class="cls-2" d="M445 320h-3a18.25 18.25 0 0 0-36.5 0h-3a21.25 21.25 0 0 1 42.5 0z"/><path class="cls-2" d="M610 340.2H42v-21h568zm-565-3h562v-15H45z"/><path class="cls-2" d="M326 254.7h1v66h-1zM341 371.2a14.52 14.52 0 0 1-14.5-14.5v-18h1v18a13.5 13.5 0 1 0 27 0v-18.5h1v18.5a14.52 14.52 0 0 1-14.5 14.5z"/></g></g></svg>