<svg xmlns="http://www.w3.org/2000/svg" viewBox="0 0 160.48 163.54"><defs><style>.cls-4{opacity:.5}.cls-2{opacity:.1}.cls-3{fill:#463e3b}.cls-4{fill:#8bd2ff}.cls-6{fill:#fff}.cls-9{fill:#6262a0}.cls-13{opacity:.35}.cls-12,.cls-13{fill:#ffb82a}</style></defs><g id="Layer_2" data-name="Layer 2"><g id="Layer_1-2" data-name="Layer 1"><path d="M157.57 70c0-22.63-13.57-41.58-31.8-46.55C114.74 9.08 98.65 0 80.73 0c-21.1 0-39.66 12.58-50.41 31.61C12.72 38.28 0 57.45 0 80.07s12.68 41.72 30.23 48.43c2.47 19.81 17.18 35 35 35 13.06 0 24.47-8.22 30.58-20.43a31.77 31.77 0 0 0 17.78 5.53c19.64 0 35.56-18.45 35.56-41.2a47.77 47.77 0 0 0-.6-7.54A52.52 52.52 0 0 0 157.57 70z" opacity=".5" fill="#ddebff"/><g class="cls-2"><path class="cls-3" d="M37 22.32H15.38V10.65H37zm-19.61-2H35v-7.67H17.38z"/><path class="cls-3" d="M51.69 32.56H30.08V20.89h21.61zm-19.61-2h17.61v-7.67H32.08z"/></g><g class="cls-2"><path class="cls-3" d="M63.88 148.3H42.27V138h21.61zm-19.61-2h17.61V140H44.27z"/><path class="cls-3" d="M78.58 157.05H57v-10.27h21.58zm-19.61-2h17.61v-6.27H59z"/></g><g class="cls-2"><path class="cls-3" d="M145.77 81h-21.6V70.16h21.61zm-19.61-2h17.61v-6.8h-17.6z"/><path class="cls-3" d="M160.48 90.28h-21.61v-10.8h21.61zm-19.61-2h17.61v-6.8h-17.61z"/></g><path class="cls-4" d="M107.18 17.72l-2.87-1.33-3.15.17.39-3.14-1.14-2.95 3.1-.6 2.46-2 1.53 2.77 2.65 1.72-2.16 2.31-.81 3.05zM14.81 37.15l-2.87-1.34-3.15.17.38-3.14-1.13-2.95 3.1-.6 2.45-1.99 1.54 2.76 2.65 1.72-2.16 2.31-.81 3.06zM95.08 150.59l-2.86-1.34-3.16.17.39-3.14-1.14-2.95 3.1-.6 2.46-1.99 1.53 2.76 2.65 1.72-2.16 2.31-.81 3.06zM6.77 110.8l-2.86-1.33-3.16.17.39-3.14L0 103.55l3.1-.6 2.46-2 1.53 2.77 2.65 1.72-2.16 2.31-.81 3.05z"/><path class="cls-6" d="M31.89 25.48a12.33 12.33 0 0 0-12.46 12.2v85.39a12.33 12.33 0 0 0 12.46 12.2h87.2a12.33 12.33 0 0 0 12.46-12.2V37.68a12.33 12.33 0 0 0-12.46-12.2h-87.2z"/><path d="M32.37 25.48A12.32 12.32 0 0 0 20 37.68V56h111.55V37.68a12.32 12.32 0 0 0-12.4-12.2H32.37z" fill="#e6f4ff"/><path class="cls-6" d="M118.5 25.78H32.18A12.28 12.28 0 0 0 19.85 38v2.7a12.28 12.28 0 0 1 12.33-12.2h86.32a12.28 12.28 0 0 1 12.33 12.2V38a12.28 12.28 0 0 0-12.33-12.22z"/><g opacity=".15"><path class="cls-9" d="M66.88 44.19a6.07 6.07 0 1 1-6.07-6.07 6.07 6.07 0 0 1 6.07 6.07zM115.44 44.19a6.07 6.07 0 1 1-6.07-6.07 6.07 6.07 0 0 1 6.07 6.07zM83.06 44.19A6.07 6.07 0 1 1 77 38.12a6.07 6.07 0 0 1 6.06 6.07zM99.25 44.19a6.07 6.07 0 1 1-6.07-6.07 6.07 6.07 0 0 1 6.07 6.07z"/></g><path fill="#ceeaff" d="M18.34 55.98h113.75v6.1H18.34z"/><g opacity=".35"><path class="cls-12" d="M67.16 70.87h12.2v12.2h-12.2zM85.45 70.87h12.2v12.2h-12.2zM103.75 70.87h12.2v12.2h-12.2zM30.56 89.17h12.2v12.2h-12.2zM48.86 89.17h12.2v12.2h-12.2zM67.16 89.17h12.2v12.2h-12.2zM85.45 89.17h12.2v12.2h-12.2zM103.75 89.17h12.2v12.2h-12.2z"/></g><path class="cls-13" d="M30.56 107.47h12.2v12.2h-12.2zM48.86 107.47h12.2v12.2h-12.2z"/><path class="cls-12" d="M67.16 107.47h12.2v12.2h-12.2z"/><path class="cls-13" d="M85.45 107.47h12.2v12.2h-12.2z"/><path d="M128.26 130c0 2.67-1.86 4.83-4.16 4.83H26.47a4.66 4.66 0 0 1-4.32-4.83h106.11z" fill="#070707" opacity=".02"/><path d="M118.61 136.67H31.83a13.31 13.31 0 0 1-13.4-13.2V38.09a13.31 13.31 0 0 1 13.4-13.2h86.78A13.31 13.31 0 0 1 132 38.09v85.39a13.31 13.31 0 0 1-13.39 13.19zM31.83 26.89a11.31 11.31 0 0 0-11.4 11.2v85.39a11.31 11.31 0 0 0 11.4 11.2h86.78a11.31 11.31 0 0 0 11.4-11.2V38.09a11.31 11.31 0 0 0-11.4-11.2z" fill="#60609a"/></g></g></svg>