<svg width="3.5rem" viewBox="0 0 100 400" xmlns="http://www.w3.org/2000/svg" fill-rule="evenodd" clip-rule="evenodd" stroke-linejoin="round" stroke-miterlimit="1.414"><path d="M46.077 100.513C20.312 98.496 0 76.783 0 50.333 0 22.553 22.404 0 50 0s50 22.553 50 50.333c0 26.45-20.312 48.163-46.077 50.18V400h-7.846V100.513z" fill="url(#_Linear1)"/><clipPath id="a"><path d="M46.077 100.513C20.312 98.496 0 76.783 0 50.333 0 22.553 22.404 0 50 0s50 22.553 50 50.333c0 26.45-20.312 48.163-46.077 50.18V400h-7.846V100.513z"/></clipPath><g clip-path="url(#a)"><g transform="matrix(2.77984 0 0 3.33793 22.202 20.805)"><clipPath id="b"><path d="M0 0h20v20H0z"/></clipPath><g clip-path="url(#b)"><path d="M10 20S3 10.87 3 7c0-3.84 3.16-7 7-7s7 3.16 7 7c0 3.87-7 13-7 13zm0-11c1.097 0 2-.903 2-2s-.903-2-2-2-2 .903-2 2 .903 2 2 2z" fill="#fff" fill-rule="nonzero"/></g></g></g><defs><linearGradient id="_Linear1" x2="1" gradientUnits="userSpaceOnUse" gradientTransform="matrix(0 -162.945 116.074 0 50 384.086)"><stop offset="0" stop-color="#ebebeb" stop-opacity="0"/><stop offset="1" stop-color="#2196f3"/></linearGradient></defs></svg>